<svg width="1024" height="1024" viewBox="0 0 1024 1024" fill="none" xmlns="http://www.w3.org/2000/svg">
  <rect width="1024" height="1024" rx="228" fill="#FAF5EF"/>
  <g transform="translate(512, 470)">
    <path d="M0 -310 C24.5 -126 63 -73.5 224 -45.5 C63 -17.5 24.5 70 0 238 C-24.5 70 -63 -17.5 -224 -45.5 C-63 -73.5 -24.5 -126 0 -310 Z" fill="url(#ig)"/>
    <circle cx="0" cy="-45.5" r="56" fill="#FDDCC8"/>
    <circle cx="0" cy="-45.5" r="28" fill="#FFF3EA"/>
  </g>
  <g transform="translate(700, 170)">
    <path d="M0 -49 C3.1 -17.5 6.2 -8.2 31 -5.6 C6.2 -2 3.1 6.2 0 35.6 C-3.1 6.2 -6.2 -2 -31 -5.6 C-6.2 -8.2 -3.1 -17.5 0 -49 Z" fill="#E8785A" opacity="0.4"/>
  </g>
  <g transform="translate(290, 280)">
    <path d="M0 -33.6 C2.1 -12 4.2 -5.6 21 -3.8 C4.2 -1.4 2.1 4.2 0 24.2 C-2.1 4.2 -4.2 -1.4 -21 -3.8 C-4.2 -5.6 -2.1 -12 0 -33.6 Z" fill="#E8785A" opacity="0.28"/>
  </g>
  <g transform="translate(680, 700)">
    <path d="M0 -22 C1.4 -7.6 2.8 -3.8 14 -2.6 C2.8 -.9 1.4 2.8 0 15.8 C-1.4 2.8 -2.8 -.9 -14 -2.6 C-2.8 -3.8 -1.4 -7.6 0 -22 Z" fill="#E8785A" opacity="0.2"/>
  </g>
  <defs>
    <linearGradient id="ig" x1=".3" y1="0" x2=".5" y2="1">
      <stop offset="0%" stop-color="#E46040"/>
      <stop offset="50%" stop-color="#EF8862"/>
      <stop offset="100%" stop-color="#E87050"/>
    </linearGradient>
  </defs>
</svg>
