<svg width="1200" height="630" viewBox="0 0 1200 630" fill="none" xmlns="http://www.w3.org/2000/svg">
  <rect width="1200" height="630" fill="#FAF5EF"/>
  <g transform="translate(405,120)">
    <rect width="390" height="390" rx="86" fill="#FAF5EF"/>
    <g transform="translate(195,179)">
      <path d="M0 -118 C9.3 -48 24 -28 85 -17 C24 -6 9.3 27 0 91 C-9.3 27 -24 -6 -85 -17 C-24 -28 -9.3 -48 0 -118 Z" fill="url(#ig)"/>
      <circle cx="0" cy="-17" r="21" fill="#FDDCC8"/>
      <circle cx="0" cy="-17" r="10.5" fill="#FFF3EA"/>
    </g>
    <g transform="translate(268,65)">
      <path d="M0 -18 C1.1 -6.4 2.2 -3 11.4 -2 C2.2 -.8 1.1 2.2 0 13 C-1.1 2.2 -2.2 -.8 -11.4 -2 C-2.2 -3 -1.1 -6.4 0 -18 Z" fill="#E8785A" opacity="0.4"/>
    </g>
    <g transform="translate(110,92)">
      <path d="M0 -12.4 C0.8 -4.4 1.5 -2.1 7.8 -1.4 C1.5 -.5 0.8 1.5 0 8.9 C-0.8 1.5 -1.5 -.5 -7.8 -1.4 C-1.5 -2.1 -0.8 -4.4 0 -12.4 Z" fill="#E8785A" opacity="0.28"/>
    </g>
    <g transform="translate(257,267)">
      <path d="M0 -8.2 C0.5 -2.8 1 -1.4 5.2 -1 C1 -.35 0.5 1 0 5.9 C-0.5 1 -1 -.35 -5.2 -1 C-1 -1.4 -0.5 -2.8 0 -8.2 Z" fill="#E8785A" opacity="0.2"/>
    </g>
  </g>
  <text x="600" y="565" text-anchor="middle" fill="#1E2340" font-family="Georgia, serif" font-size="62">Little Wonder</text>
  <defs>
    <linearGradient id="ig" x1="0.3" y1="0" x2="0.5" y2="1">
      <stop offset="0%" stop-color="#E46040"/>
      <stop offset="50%" stop-color="#EF8862"/>
      <stop offset="100%" stop-color="#E87050"/>
    </linearGradient>
  </defs>
</svg>
